Love for All and Sharing is the first step to solving all the problems of humanity.

Websites I want to share.

    
http://www.shareintl.org/

    
http://www.lightmiddleway.com


Thank you very much

No credit for me...credit to EVERYONE for sharing
 
http://thepiratebay.org/user/raymondhome/

PLOT
A romantic drama about a soldier who falls for a conservative college student while he's home on leave.

FROM NICHOLAS SPARKS, BEST SELLING AUTHOR OF Message in a Bottle, A Walk to Remember & The Notebook

Format : MPEG-4
Duration : 1h 47mn
Overall bit rate : 2 576 Kbps

Video
ID : 1
Format : AVC
Format/Info : Advanced Video Codec
Format profile : High@L4.1
Format settings, CABAC : Yes
Format settings, ReFrames : 3 frames
Codec ID : avc1
Codec ID/Info : Advanced Video Coding
Duration : 1h 47mn
Bit rate mode : Variable
Bit rate : 1 999 Kbps
Maximum bit rate : 11.9 Mbps
Width : 1 280 pixels
Height : 536 pixels
Display aspect ratio : 2.35:1
Frame rate mode : Constant
Frame rate : 23.976 fps
Resolution : 24 bits
Colorimetry : 4:2:0
Scan type : Progressive
Bits/(Pixel*Frame) : 0.122
Stream size : 1.50 GiB (77%)

Audio #1
ID : 2
Format : AAC
Format/Info : Advanced Audio Codec
Format version : Version 4
Format profile : LC
Format settings, SBR : No
Codec ID : 40
Duration : 1h 47mn
Bit rate mode : Variable
Bit rate : 128 Kbps
Maximum bit rate : 136 Kbps
Channel(s) : 2 channels
Channel positions : L R
Sampling rate : 48.0 KHz
Resolution : 16 bits
Stream size : 98.6 MiB (5%)

Audio #2
ID : 3
Format : AAC
Format/Info : Advanced Audio Codec
Format version : Version 4
Format profile : LC
Format settings, SBR : No
Codec ID : 40
Duration : 1h 47mn
Bit rate mode : Variable
Bit rate : 448 Kbps
Maximum bit rate : 465 Kbps
Channel(s) : 6 channels
Channel positions : Front: L C R, Rear: L R, LFE
Sampling rate : 48.0 KHz
Resolution : 16 bits
Stream size : 345 MiB (17%)

Language : English

credit Wrath BIG BIG BIG TIME & to all the people who made it possible for us to share this...especially EVERYONE involve in the production of the movie...IF YOU LIKE IT...BUY IT :)

*****help what we can with others in need...the world is ONE big family*****